<svg width="51" height="64" viewBox="0 0 51 64" fill="none" xmlns="http://www.w3.org/2000/svg">
<circle cx="22" cy="46" r="1" fill="white"/>
<circle cx="22" cy="49" r="1" fill="white"/>
<path d="M36 63H6.5C1.3 63 1.00002 63 1 52V12C1 1.99996 0.900005 1.99996 8.5 1.99996H34.5C35.3032 1.99996 36.0203 1.99538 37.6606 1.99996M36 63C42 63 42 62.8 42 52V12C42 2.71367 43 2.03816 37.6606 1.99996M36 63H45.5C50 63 50 62.8 50 58V12C50 3 49.3 1.99996 44.5 1.99996H37.6606" stroke="white" stroke-width="2"/>
<circle cx="21.5" cy="39.5" r="2.5" stroke="white" stroke-width="2"/>
</svg>
