<svg width="75" height="47" viewBox="0 0 75 47" fill="none" xmlns="http://www.w3.org/2000/svg">
<path d="M69.8672 38H50.3107M69.8672 38H72.1954C73.1266 38 74.1665 37.9 73.9113 39.5C73.2908 42.8779 70.7639 46 67.539 46H9.80082C3.59996 46 1.47364 43.5458 1.04201 40C0.954746 38.6569 0.860719 38 2.35074 38H4.67889M69.8672 38L70.2294 9C70.3328 1 70.3328 0.999992 62.8827 1H11.1977C4.12013 1 4.67889 1 4.67889 9V38M4.67889 38H25.1666M50.3107 38H47.9825H27.4948H25.1666M50.3107 38C50.1555 38.6667 49.4726 40 47.9825 40H46.12H27.4948C25.1666 40 25.1666 38.5 25.1666 38" stroke="white" stroke-width="2"/>
<rect x="9.40393" y="6" width="55.7382" height="28" stroke="white" stroke-width="2"/>
</svg>
