<svg width="37" height="34" viewBox="0 0 37 34" fill="none" xmlns="http://www.w3.org/2000/svg">
<path d="M8.32182 1.26295C6.25791 -0.571637 3.09754 -0.385733 1.26295 1.67818C-0.571637 3.74209 -0.385733 6.90246 1.67818 8.73705L8.32182 1.26295ZM28.6782 32.737C30.7421 34.5716 33.9025 34.3857 35.737 32.3218C37.5716 30.2579 37.3857 27.0975 35.3218 25.263L28.6782 32.737ZM35.3218 8.73705C37.3857 6.90246 37.5716 3.74209 35.737 1.67818C33.9025 -0.385733 30.7421 -0.571637 28.6782 1.26295L35.3218 8.73705ZM1.67818 25.263C-0.385733 27.0975 -0.571637 30.2579 1.26295 32.3218C3.09754 34.3857 6.25791 34.5716 8.32182 32.737L1.67818 25.263ZM1.67818 8.73705L15.1782 20.737L21.8218 13.263L8.32182 1.26295L1.67818 8.73705ZM15.1782 20.737L28.6782 32.737L35.3218 25.263L21.8218 13.263L15.1782 20.737ZM21.8218 20.737L35.3218 8.73705L28.6782 1.26295L15.1782 13.263L21.8218 20.737ZM15.1782 13.263L1.67818 25.263L8.32182 32.737L21.8218 20.737L15.1782 13.263Z" fill="#3E0453"/>
</svg>
