<svg width="29" height="22" viewBox="0 0 29 22" fill="none" xmlns="http://www.w3.org/2000/svg">
<path d="M7.22305 7.15406C6.46945 5.37401 4.41552 4.54192 2.63548 5.29553C0.855433 6.04913 0.0233407 8.10306 0.776946 9.8831L7.22305 7.15406ZM27.3424 6.6006C28.7787 5.30692 28.8943 3.09386 27.6006 1.65759C26.3069 0.221319 24.0939 0.105724 22.6576 1.3994L27.3424 6.6006ZM6.78909 15.1065L10.0441 13.8201L10.0286 13.7809L10.0121 13.742L6.78909 15.1065ZM12.6693 15.1065L10.3269 12.5059L10.3131 12.5183L10.2994 12.5309L12.6693 15.1065ZM0.776946 9.8831L3.56603 16.471L10.0121 13.742L7.22305 7.15406L0.776946 9.8831ZM15.0117 17.7071L27.3424 6.6006L22.6576 1.3994L10.3269 12.5059L15.0117 17.7071ZM3.53405 16.3929C3.89859 17.3153 4.32641 18.3785 4.84971 19.1953C5.39177 20.0414 6.66455 21.5785 8.91674 21.4971C10.5545 21.4379 11.8262 20.4591 12.4122 19.9999C13.1674 19.408 14.0666 18.577 15.0392 17.6821L10.2994 12.5309C9.78492 13.0043 9.35613 13.3988 8.97966 13.7352C8.6009 14.0737 8.31638 14.3162 8.0943 14.4903C7.86139 14.6728 7.78005 14.7139 7.80687 14.6998C7.82551 14.69 8.14163 14.5206 8.66389 14.5017C8.94006 14.4917 9.24172 14.5254 9.54736 14.6196C9.85038 14.7129 10.0983 14.8475 10.2883 14.982C10.6373 15.2293 10.7722 15.4634 10.7439 15.4193C10.7248 15.3894 10.6521 15.2645 10.5176 14.9651C10.3875 14.6755 10.2365 14.3068 10.0441 13.8201L3.53405 16.3929Z" fill="#09A40F"/>
</svg>
