<svg width="10" height="10" viewBox="0 0 10 10" fill="none" xmlns="http://www.w3.org/2000/svg">
<path d="M5.74404 7.25C5.74404 7.66421 5.55225 8 4.99996 8C4.44768 8 4.29846 7.66421 4.29846 7.25C4.29846 6.83579 4.44768 6.5 4.99996 6.5C5.55225 6.5 5.74404 6.83579 5.74404 7.25Z" fill="#CAC7C7"/>
<path d="M5.90088 2.4238C5.73919 2.17301 5.39653 2 4.99996 2C4.60338 2 4.26072 2.17301 4.09903 2.4238C3.91867 2.6054 4.08101 3.11389 4.08101 3.11389L4.62644 5.56647C4.8033 6.36173 5.16287 6.3469 5.37347 5.56647L5.9189 3.11389C5.9189 3.11389 6.06257 2.6746 5.90088 2.4238Z" fill="#CAC7C7"/>
</svg>
