<svg width="31" height="28" viewBox="0 0 31 28" fill="none" xmlns="http://www.w3.org/2000/svg">
<path d="M2.99655 0.878886C2.37737 0.328509 1.42926 0.38428 0.878886 1.00345C0.328509 1.62263 0.38428 2.57074 1.00345 3.12111L2.99655 0.878886ZM28.0035 27.1211C28.6226 27.6715 29.5707 27.6157 30.1211 26.9965C30.6715 26.3774 30.6157 25.4293 29.9965 24.8789L28.0035 27.1211ZM29.9965 3.12111C30.6157 2.57074 30.6715 1.62263 30.1211 1.00345C29.5707 0.38428 28.6226 0.328509 28.0035 0.878886L29.9965 3.12111ZM1.00345 24.8789C0.38428 25.4293 0.328509 26.3774 0.878886 26.9965C1.42926 27.6157 2.37737 27.6715 2.99655 27.1211L1.00345 24.8789ZM1.00345 3.12111L14.5035 15.1211L16.4965 12.8789L2.99655 0.878886L1.00345 3.12111ZM14.5035 15.1211L28.0035 27.1211L29.9965 24.8789L16.4965 12.8789L14.5035 15.1211ZM16.4965 15.1211L29.9965 3.12111L28.0035 0.878886L14.5035 12.8789L16.4965 15.1211ZM14.5035 12.8789L1.00345 24.8789L2.99655 27.1211L16.4965 15.1211L14.5035 12.8789Z" fill="#FF3030"/>
</svg>
